PathFileType	4	(X/Y/Z)	D:\telocate\uwb05-Unnamed.trc
DataRate	CameraRate	NumFrames	NumMarkers	Units	OrigDataRate	OrigDataStartFrame	OrigNumFrames
100.00	100.00	      242	0	mm	100.00	3089	      8235
Frame#	Time	
		

3089	30.880				-735.81665	-1889.34680	1203.10681	
3090	30.890				-727.56201	-1896.92346	1202.65063	
3091	30.900				-718.70764	-1904.76013	1202.28369	
3092	30.910				-709.87097	-1911.91187	1201.94775	
3093	30.920				-700.68903	-1919.73499	1200.94873	
3094	30.930				-691.31232	-1927.49231	1200.36328	
3095	30.940				-681.88867	-1935.02075	1199.65112	
3096	30.950				-672.65961	-1941.97827	1199.07361	
3097	30.960				-663.31293	-1949.31140	1198.60400	
3098	30.970				-653.64618	-1956.34424	1197.74658	
3099	30.980				-644.24445	-1963.65942	1196.80627	
3100	30.990				-634.17676	-1970.56763	1196.19971	
3101	31.000				-624.25494	-1977.22424	1194.95044	
3102	31.010				-614.35352	-1984.77234	1194.54102	
3103	31.020				-604.21008	-1991.70410	1193.25806	
3104	31.030				-594.26221	-1998.25439	1192.43542	
3105	31.040				-584.13617	-2004.58533	1191.88940	
3106	31.050				-574.05878	-2011.71570	1190.81860	
3107	31.060				-563.59363	-2018.19922	1189.95349	
3108	31.070				-552.97278	-2024.49170	1189.20605	
3109	31.080				-543.75818	-2031.51318	1189.91785	
3110	31.090				-532.89532	-2037.04260	1188.45618	
3111	31.100				-522.42609	-2043.09717	1187.89612	
3112	31.110				-513.75067	-2049.37915	1188.26013	
3113	31.120				-503.65384	-2054.61816	1187.56604	
3114	31.130				-493.54431	-2060.11597	1187.49414	
3115	31.140				-481.78558	-2065.60376	1187.03918	
3116	31.150				-473.54956	-2071.17285	1187.86475	
3117	31.160				-460.88699	-2075.87598	1187.33997	
3118	31.170				-451.32040	-2081.05884	1187.80273	
3119	31.180				-440.88184	-2085.88623	1188.18262	
3120	31.190				-432.93188	-2090.58618	1188.51013	
3121	31.200				-422.60913	-2094.68677	1189.01062	
3122	31.210				-411.45856	-2099.35913	1189.90259	
3123	31.220				-400.74976	-2103.49072	1190.48718	
3124	31.230				-390.53867	-2107.56030	1191.51306	
3125	31.240				-380.71597	-2111.61841	1192.79468	
3126	31.250				-371.68127	-2115.78638	1193.25928	
3127	31.260				-360.67520	-2119.19971	1193.75879	
3128	31.270				-349.69992	-2123.60742	1194.69519	
3129	31.280				-337.57901	-2127.22607	1195.08459	
3130	31.290				-327.56683	-2131.03320	1195.34998	
3131	31.300				-315.88852	-2134.95093	1195.82104	
3132	31.310				-306.90125	-2138.54346	1196.22400	
3133	31.320				-294.64789	-2142.15649	1196.51721	
3134	31.330				-285.17841	-2146.08301	1196.66150	
3135	31.340				-273.58627	-2150.35889	1197.64856	
3136	31.350				-262.68100	-2153.44531	1197.79175	
3137	31.360				-252.20937	-2157.65503	1198.61951	
3138	31.370				-241.44237	-2160.26855	1199.29810	
3139	31.380				-234.26830	-2163.35718	1201.04224	
3140	31.390				-224.68913	-2165.19775	1201.32654	
3141	31.400				-213.58102	-2168.55176	1202.31836	
3142	31.410				-201.17368	-2171.47021	1202.57361	
3143	31.420				-190.28925	-2175.00806	1203.19409	
3144	31.430				-179.15619	-2177.72925	1203.57007	
3145	31.440				-168.96944	-2181.88184	1203.93823	
3146	31.450				-158.12369	-2185.32104	1204.38989	
3147	31.460				-148.57739	-2189.15771	1204.79626	
3148	31.470				-138.26723	-2192.52051	1205.17444	
3149	31.480				-125.59476	-2197.04785	1205.57996	
3150	31.490				-111.93952	-2196.85229	1205.01587	
3151	31.500				-98.86111	-2199.91504	1204.95984	
3152	31.510				-86.15422	-2202.91675	1204.61194	
3153	31.520				-76.18477	-2206.69434	1203.16150	
3154	31.530				-61.57153	-2209.60718	1203.85901	
3155	31.540				-49.68015	-2213.82202	1203.77307	
3156	31.550				-36.57339	-2216.80957	1202.72253	
3157	31.560				-25.52054	-2221.03931	1201.40967	
3158	31.570				-14.14991	-2225.34375	1200.51770	
3159	31.580				0.24800	-2228.23364	1199.93152	
3160	31.590				15.81510	-2230.56421	1199.56006	
3161	31.600				27.57511	-2233.85522	1197.78503	
3162	31.610				42.62729	-2237.78979	1197.07104	
3163	31.620				55.92407	-2241.68433	1196.85535	
3164	31.630				67.42495	-2245.54053	1194.96887	
3165	31.640				83.67358	-2248.19922	1194.77527	
3166	31.650				94.57185	-2252.24512	1193.25916	
3167	31.660				109.77505	-2255.40991	1192.50452	
3168	31.670				120.63525	-2259.87866	1191.45789	
3169	31.680				132.94167	-2263.22510	1190.01941	
3170	31.690				146.61351	-2266.01001	1189.24561	
3171	31.700				162.66826	-2268.64819	1189.62781	
3172	31.710				174.77400	-2273.04736	1189.05579	
3173	31.720				186.81169	-2276.01660	1188.69946	
3174	31.730				200.01591	-2278.97266	1189.26917	
3175	31.740				209.05392	-2282.20264	1188.49072	
3176	31.750				219.54333	-2285.00879	1188.85693	
3177	31.760				233.80199	-2286.80396	1190.51563	
3178	31.770				243.50642	-2289.49756	1190.77344	
3179	31.780				253.19136	-2292.32251	1191.27661	
3180	31.790				264.92773	-2294.15625	1192.80701	
3181	31.800				275.16370	-2296.18018	1193.43420	
3182	31.810				286.27820	-2297.66919	1194.60767	
3183	31.820				299.84085	-2298.31226	1196.20264	
3184	31.830				311.03885	-2300.08252	1197.03552	
3185	31.840				322.67740	-2301.78174	1197.55066	
3186	31.850				333.59387	-2304.32935	1198.01575	
3187	31.860				345.83020	-2305.42480	1198.34680	
3188	31.870				354.65204	-2308.16699	1198.26892	
3189	31.880				365.36694	-2310.58130	1198.70850	
3190	31.890				379.33841	-2311.94019	1199.94849	
3191	31.900				388.74698	-2314.34082	1200.36548	
3192	31.910				402.05579	-2314.86987	1201.51050	
3193	31.920				410.24466	-2317.73267	1201.51294	
3194	31.930				423.85507	-2317.16040	1203.38074	
3195	31.940				432.39005	-2319.33276	1202.84241	
3196	31.950				446.23007	-2319.45654	1204.65674	
3197	31.960				453.75616	-2322.08960	1204.42847	
3198	31.970				467.95001	-2321.20337	1205.26416	
3199	31.980				478.47610	-2322.88232	1205.63977	
3200	31.990				491.08487	-2323.23901	1205.82642	
3201	32.000				500.99826	-2325.24463	1205.70703	
3202	32.010				515.81458	-2324.42676	1205.93872	
3203	32.020				527.91486	-2325.66724	1205.86670	
3204	32.030				540.78833	-2326.18237	1204.77612	
3205	32.040				551.35504	-2327.86475	1203.66016	
3206	32.050				565.22705	-2327.79712	1204.33704	
3207	32.060				575.96173	-2329.50757	1202.20557	
3208	32.070				591.50696	-2329.20068	1202.60693	
3209	32.080				602.31567	-2330.99048	1200.51514	
3210	32.090				618.83838	-2330.41016	1199.88391	
3211	32.100				628.52069	-2332.74023	1198.10791	
3212	32.110				645.01831	-2332.51147	1197.37061	
3213	32.120				655.11578	-2334.25952	1196.09082	
3214	32.130				671.26703	-2333.97876	1195.62451	
3215	32.140				684.62451	-2334.46338	1194.39514	
3216	32.150				696.06055	-2335.76050	1192.50549	
3217	32.160				710.73096	-2335.69751	1192.41370	
3218	32.170				720.79028	-2337.41943	1190.69653	
3219	32.180				735.96497	-2337.23071	1191.39563	
3220	32.190				746.30737	-2337.79126	1189.37927	
3221	32.200				760.56635	-2337.21533	1189.50269	
3222	32.210				769.90601	-2338.21191	1188.48376	
3223	32.220				783.50653	-2337.73022	1188.89514	
3224	32.230				792.04266	-2339.24634	1188.31116	
3225	32.240				805.96753	-2338.46826	1189.25647	
3226	32.250				816.51392	-2337.79346	1188.96838	
3227	32.260				825.78320	-2338.74878	1188.76831	
3228	32.270				837.06451	-2337.20654	1189.99609	
3229	32.280				843.79004	-2338.26001	1189.83679	
3230	32.290				855.70081	-2336.45557	1191.32849	
3231	32.300				863.08167	-2337.07886	1192.02368	
3232	32.310				872.07526	-2336.26660	1192.51123	
3233	32.320				885.02942	-2334.20410	1194.22437	
3234	32.330				893.13007	-2334.53271	1194.41016	
3235	32.340				904.87750	-2332.71484	1195.33191	
3236	32.350				913.57349	-2333.28882	1195.67517	
3237	32.360				925.65662	-2331.57202	1196.64917	
3238	32.370				933.29089	-2332.70190	1195.93164	
3239	32.380				946.45520	-2330.87158	1196.90210	
3240	32.390				956.78101	-2331.03027	1197.01990	
3241	32.400				964.57568	-2331.58691	1196.42200	
3242	32.410				977.42078	-2330.32886	1197.33057	
3243	32.420				985.07306	-2331.44458	1196.99231	
3244	32.430				997.52844	-2329.92603	1198.01550	
3245	32.440				1004.16394	-2331.24634	1197.58008	
3246	32.450				1017.51855	-2329.30078	1198.63025	
3247	32.460				1027.23401	-2328.91724	1199.04004	
3248	32.470				1034.96570	-2329.64624	1199.00806	
3249	32.480				1048.09375	-2328.20337	1199.55762	
3250	32.490				1056.63464	-2328.18115	1199.26868	
3251	32.500				1069.29480	-2327.29980	1199.64453	
3252	32.510				1077.22986	-2328.03955	1199.01660	
3253	32.520				1091.12463	-2326.46387	1199.55518	
3254	32.530				1102.83191	-2326.61157	1199.26074	
3255	32.540				1112.65930	-2326.39600	1198.01099	
3256	32.550				1125.68542	-2325.75854	1197.91943	
3257	32.560				1138.40137	-2324.93066	1197.33289	
3258	32.570				1150.56177	-2324.49609	1196.48352	
3259	32.580				1163.28308	-2324.28247	1195.65662	
3260	32.590				1175.62341	-2323.62109	1194.56714	
3261	32.600				1187.61523	-2323.29199	1193.12122	
3262	32.610				1199.60022	-2323.20996	1192.23389	
3263	32.620				1213.89014	-2322.11157	1191.55884	
3264	32.630				1223.65015	-2322.80664	1188.96130	
3265	32.640				1240.10474	-2321.88232	1189.79321	
3266	32.650				1250.99377	-2321.93237	1186.76025	
3267	32.660				1266.84827	-2320.62769	1186.58569	
3268	32.670				1280.28906	-2320.44458	1185.53308	
3269	32.680				1293.73621	-2319.75195	1184.07275	
3270	32.690				1306.44092	-2319.65063	1182.83252	
3271	32.700				1320.11584	-2319.19165	1180.91919	
3272	32.710				1333.54089	-2318.56323	1179.72815	
3273	32.720				1345.28833	-2319.10425	1177.88672	
3274	32.730				1360.13623	-2318.19556	1177.67371	
3275	32.740				1369.54785	-2319.94482	1176.12219	
3276	32.750				1385.82141	-2317.90527	1176.39771	
3277	32.760				1395.86304	-2319.02734	1174.15991	
3278	32.770				1412.55591	-2317.28638	1174.69470	
3279	32.780				1424.84839	-2317.34570	1174.49585	
3280	32.790				1436.65454	-2317.39502	1173.98572	
3281	32.800				1449.11902	-2317.02832	1173.63745	
3282	32.810				1460.05591	-2317.18091	1174.22729	
3283	32.820				1469.79626	-2317.94678	1173.87927	
3284	32.830				1484.02625	-2315.88452	1175.03552	
3285	32.840				1492.03186	-2317.17285	1175.42517	
3286	32.850				1505.69336	-2315.97998	1177.08313	
3287	32.860				1517.20508	-2315.57520	1177.97815	
3288	32.870				1527.77222	-2315.01172	1179.11011	
3289	32.880				1539.43640	-2315.07471	1180.29041	
3290	32.890				1550.19116	-2314.80981	1181.43774	
3291	32.900				1560.47144	-2315.06885	1182.78174	
3292	32.910				1572.56824	-2314.06885	1183.36768	
3293	32.920				1580.54736	-2314.74536	1184.01880	
3294	32.930				1591.67590	-2314.13989	1183.99976	
3295	32.940				1606.57141	-2311.48901	1186.55554	
3296	32.950				1615.87561	-2312.07568	1185.94934	
3297	32.960				1629.10339	-2309.95801	1187.52527	
3298	32.970				1641.00183	-2308.67798	1188.21545	
3299	32.980				1652.17590	-2307.24121	1188.95740	
3300	32.990				1660.57117	-2307.91699	1189.18237	
3301	33.000				1670.53430	-2306.97998	1188.17004	
3302	33.010				1683.27856	-2304.75439	1189.29224	
3303	33.020				1698.22241	-2301.00195	1191.53455	
3304	33.030				1705.17261	-2301.88965	1189.59937	
3305	33.040				1716.58386	-2300.13867	1189.69727	
3306	33.050				1728.75562	-2297.46143	1190.76477	
3307	33.060				1741.45056	-2295.84326	1190.15369	
3308	33.070				1755.01392	-2292.66284	1189.98730	
3309	33.080				1769.49036	-2289.51465	1191.51978	
3310	33.090				1777.02087	-2289.01147	1189.43359	
3311	33.100				1788.91516	-2287.15869	1189.53894	
3312	33.110				1801.96912	-2283.80884	1188.64136	
3313	33.120				1812.83960	-2281.61279	1187.34485	
3314	33.130				1830.61780	-2275.97314	1189.36304	
3315	33.140				1840.54358	-2274.36841	1187.15125	
3316	33.150				1850.05103	-2272.64893	1185.53650	
3317	33.160				1863.26404	-2269.34180	1184.41650	
3318	33.170				1873.69446	-2265.86914	1183.23828	
3319	33.180				1888.96680	-2262.53955	1182.27148	
3320	33.190				1905.94763	-2256.69434	1182.48987	
3321	33.200				1913.21765	-2257.04346	1179.14258	
3322	33.210				1924.78491	-2253.70435	1178.50488	
3323	33.220				1937.97717	-2249.65503	1177.71826	
3324	33.230				1948.92249	-2246.21924	1175.36963	
3325	33.240				1964.27051	-2241.01929	1176.48608	
3326	33.250				1976.28979	-2237.30615	1176.15332	
3327	33.260				1983.92407	-2236.31250	1173.56079	
3328	33.270				1994.93408	-2232.53271	1173.74341	
3329	33.280				2006.42676	-2228.55298	1173.24829	
3330	33.290				2017.43738	-2225.39966	1173.03076	
